<svg id="_394187_github_icon" data-name="394187_github_icon" xmlns="http://www.w3.org/2000/svg" width="54" height="52.667" viewBox="0 0 54 52.667">
  <path id="Path_20" data-name="Path 20" d="M-1132.29,1662.92a27,27,0,0,0-27,27,27.007,27.007,0,0,0,18.464,25.62c1.349.25,1.845-.586,1.845-1.3,0-.644-.025-2.771-.037-5.027-7.511,1.634-9.1-3.186-9.1-3.186-1.228-3.121-3-3.951-3-3.951-2.45-1.676.185-1.641.185-1.641a5.675,5.675,0,0,1,4.139,2.783c2.408,4.127,6.316,2.934,7.857,2.244a5.75,5.75,0,0,1,1.714-3.61c-6-.682-12.3-3-12.3-13.344a10.449,10.449,0,0,1,2.782-7.247,9.7,9.7,0,0,1,.262-7.146s2.267-.725,7.427,2.768a25.886,25.886,0,0,1,6.758-.909,25.95,25.95,0,0,1,6.764.909c5.154-3.493,7.418-2.768,7.418-2.768a9.691,9.691,0,0,1,.265,7.146,10.428,10.428,0,0,1,2.779,7.247c0,10.371-6.316,12.654-12.329,13.322a6.454,6.454,0,0,1,1.831,5c0,3.613-.031,6.52-.031,7.41,0,.719.486,1.561,1.854,1.3a27,27,0,0,0,18.449-25.617A27,27,0,0,0-1132.29,1662.92Z" transform="translate(1159.29 -1662.92)" fill-rule="evenodd"/>
  <path id="Path_21" data-name="Path 21" d="M-1149.96,1698.28c-.054.123-.247.159-.422.075s-.279-.247-.221-.37.246-.161.424-.077.279.252.219.372Zm-.3-.23" transform="translate(1159.29 -1659.52)"/>
  <path id="Path_22" data-name="Path 22" d="M-1148.96,1699.39c-.117.109-.347.058-.5-.114a.376.376,0,0,1-.072-.512c.121-.109.344-.058.505.114a.376.376,0,0,1,.07.512Zm-.24-.25" transform="translate(1160.236 -1659.422)"/>
  <path id="Path_23" data-name="Path 23" d="M-1147.99,1700.81c-.151.105-.4.007-.551-.212s-.151-.482,0-.587.4-.01.551.207a.444.444,0,0,1,0,.593Zm0,0" transform="translate(1160.33 -1659.288)"/>
  <path id="Path_24" data-name="Path 24" d="M-1146.66,1702.18c-.135.149-.423.109-.633-.094a.474.474,0,0,1-.14-.629c.137-.149.426-.107.638.094s.275.479.135.629Zm0,0" transform="translate(1160.446 -1658.297)"/>
  <path id="Path_25" data-name="Path 25" d="M-1144.83,1702.98c-.06.193-.337.28-.615.2s-.461-.31-.4-.505.336-.286.617-.2.463.3.4.5Zm0,0" transform="translate(1160.61 -1658.297)"/>
  <path id="Path_26" data-name="Path 26" d="M-1142.81,1703.12c.007.2-.23.372-.523.375s-.533-.158-.536-.358.231-.372.526-.377.533.159.533.359Zm0,0" transform="translate(1160.807 -1658.297)"/>
  <path id="Path_27" data-name="Path 27" d="M-1140.94,1702.81c.035.2-.169.4-.459.456s-.55-.07-.587-.266.172-.407.457-.459.559.06.589.27Zm0,0" transform="translate(1160.991 -1658.297)"/>
</svg>
