<svg id="Icon_-_Image" data-name="Icon - Image" xmlns="http://www.w3.org/2000/svg" width="18.915" height="15.76" viewBox="0 0 18.915 15.76">
  <path id="Path_1" data-name="Path 1" fill="" d="M105.677,148.854a1.577,1.577,0,1,0-1.577-1.577A1.579,1.579,0,0,0,105.677,148.854Z" transform="translate(-100.163 -141.767)"/>
  <path id="Path_2" data-name="Path 2" d="M17.334,41.7H1.577A1.576,1.576,0,0,0,0,43.277V55.883A1.579,1.579,0,0,0,1.577,57.46h15.76a1.579,1.579,0,0,0,1.577-1.577V43.277A1.582,1.582,0,0,0,17.334,41.7Zm-.787,9.452-2.375-2.375a1.091,1.091,0,0,0-1.589.038c-1.354,1.35-3.915,3.915-3.915,3.915l-1.6-1.6a1.11,1.11,0,0,0-1.551.023L2.368,54.3V44.06H16.551l0,7.092Z" transform="translate(0 -41.7)"/>
</svg>
