<svg id="_5282542_linkedin_network_social_network_linkedin_logo_icon" data-name="5282542_linkedin_network_social network_linkedin logo_icon" xmlns="http://www.w3.org/2000/svg" width="54" height="54" viewBox="0 0 54 54">
  <path id="_5282542_linkedin_network_social_network_linkedin_logo_icon-2" data-name="5282542_linkedin_network_social network_linkedin logo_icon" d="M47.4,0A6.6,6.6,0,0,1,54,6.6V47.4A6.6,6.6,0,0,1,47.4,54H6.6A6.6,6.6,0,0,1,0,47.4V6.6A6.6,6.6,0,0,1,6.6,0H47.4ZM16.924,44.643V20.837H9.009V44.643Zm28.533,0V30.991c0-7.312-3.9-10.714-9.11-10.714a7.86,7.86,0,0,0-7.131,3.93V20.837H21.3c.1,2.234,0,23.806,0,23.806h7.912V31.348a5.411,5.411,0,0,1,.261-1.932,4.33,4.33,0,0,1,4.06-2.893c2.862,0,4.009,2.184,4.009,5.383V44.643ZM13.02,9.357c-2.708,0-4.477,1.78-4.477,4.113a4.1,4.1,0,0,0,4.372,4.113h.051a4.126,4.126,0,1,0,.054-8.227Z" fill-rule="evenodd"/>
</svg>
