<svg xmlns="http://www.w3.org/2000/svg" width="54" height="43.886" viewBox="0 0 54 43.886">
  <path id="_317720_social_media_tweet_twitter_social_icon" data-name="317720_social media_tweet_twitter_social_icon" d="M54,8.194a21.99,21.99,0,0,1-6.363,1.744A11.12,11.12,0,0,0,52.511,3.81,22.186,22.186,0,0,1,45.475,6.5,11.092,11.092,0,0,0,26.594,16.6,31.458,31.458,0,0,1,3.758,5.027,11.1,11.1,0,0,0,7.186,19.82,11.045,11.045,0,0,1,2.17,18.434c0,.046,0,.095,0,.138a11.086,11.086,0,0,0,8.887,10.865,11.13,11.13,0,0,1-5,.191A11.092,11.092,0,0,0,16.4,37.322,22.223,22.223,0,0,1,2.644,42.067,22.39,22.39,0,0,1,0,41.912a31.382,31.382,0,0,0,16.982,4.974c20.377,0,31.522-16.881,31.522-31.522,0-.479-.014-.959-.034-1.435A22.475,22.475,0,0,0,54,8.194Z" transform="translate(-0.001 -3)"/>
</svg>
